<svg width="64" height="64" viewBox="0 0 64 64" fill="none" xmlns="http://www.w3.org/2000/svg">
  <rect width="64" height="64" rx="16" fill="#0A0E12"/>
  <path d="M18.5 39.2C24.2 45.4 35 45.7 41.2 39.6C46.4 34.4 46.5 26.1 41.5 20.7L37.9 24.5C40.8 27.8 40.6 33 36.9 36.6C33.1 40.2 27.1 39.9 23.6 36.1C20.1 32.3 20.3 26.3 24.1 22.7L20.5 19C14.9 24.4 14.8 33.4 18.5 39.2Z" fill="#1BC3AD"/>
  <path d="M44.6 44.8C46.1 43.2 44.7 39.9 40.9 36.2C37.2 32.4 33.9 31 32.4 32.6C30.9 34.1 32.3 37.4 36.1 41.2C39.8 44.9 43.1 46.4 44.6 44.8Z" fill="#1BC3AD"/>
</svg>
