<svg width="1126" height="259" viewBox="0 0 1126 259" fill="none" xmlns="http://www.w3.org/2000/svg">
<path d="M147 195.316C183.451 195.316 213 165.767 213 129.316C213 92.8656 183.451 63.3164 147 63.3164C110.549 63.3164 81 92.8656 81 129.316C81 165.767 110.549 195.316 147 195.316Z" stroke="#3B82F6" stroke-width="33"/>
<path d="M279 144.316C287.284 144.316 294 137.601 294 129.316C294 121.032 287.284 114.316 279 114.316C270.716 114.316 264 121.032 264 129.316C264 137.601 270.716 144.316 279 144.316Z" fill="#3B82F6"/>
<path d="M213 258.629C221.284 258.629 228 251.913 228 243.629C228 235.345 221.284 228.629 213 228.629C204.716 228.629 198 235.345 198 243.629C198 251.913 204.716 258.629 213 258.629Z" fill="#3B82F6"/>
<path d="M81 258.629C89.2843 258.629 96 251.913 96 243.629C96 235.345 89.2843 228.629 81 228.629C72.7157 228.629 66 235.345 66 243.629C66 251.913 72.7157 258.629 81 258.629Z" fill="#3B82F6"/>
<path d="M15 144.316C23.2843 144.316 30 137.601 30 129.316C30 121.032 23.2843 114.316 15 114.316C6.71573 114.316 0 121.032 0 129.316C0 137.601 6.71573 144.316 15 144.316Z" fill="#3B82F6"/>
<path d="M81 30C89.2843 30 96 23.2843 96 15C96 6.71573 89.2843 0 81 0C72.7157 0 66 6.71573 66 15C66 23.2843 72.7157 30 81 30Z" fill="#3B82F6"/>
<path d="M213 30C221.284 30 228 23.2843 228 15C228 6.71573 221.284 0 213 0C204.716 0 198 6.71573 198 15C198 23.2843 204.716 30 213 30Z" fill="#3B82F6"/>
<path d="M364.152 171.416C354.456 171.416 346.776 169.208 341.112 164.792C335.448 160.28 332.52 154.424 332.328 147.224H347.016C347.304 151.832 349.032 155.24 352.2 157.448C355.464 159.56 359.592 160.616 364.584 160.616C369.768 160.616 373.704 159.656 376.392 157.736C379.176 155.72 380.568 152.936 380.568 149.384C380.568 145.448 379.224 142.712 376.536 141.176C373.848 139.64 369.288 138.392 362.856 137.432C353.352 136.088 346.2 133.88 341.4 130.808C336.696 127.64 334.344 122.504 334.344 115.4C334.344 108.488 337.08 102.92 342.552 98.696C348.12 94.472 355.416 92.36 364.44 92.36C373.368 92.36 380.472 94.472 385.752 98.696C391.128 102.92 393.96 108.584 394.248 115.688H379.704C379.416 111.272 377.88 108.104 375.096 106.184C372.312 104.264 368.664 103.304 364.152 103.304C359.448 103.304 355.752 104.264 353.064 106.184C350.472 108.104 349.176 110.696 349.176 113.96C349.176 117.704 350.664 120.344 353.64 121.88C356.712 123.416 361.608 124.664 368.328 125.624C377.16 126.872 383.928 129.08 388.632 132.248C393.336 135.32 395.688 140.6 395.688 148.088C395.688 155.576 392.808 161.336 387.048 165.368C381.288 169.4 373.656 171.416 364.152 171.416Z" fill="white"/>
<path d="M439.959 171.272C433.719 171.272 428.247 169.688 423.543 166.52C418.839 163.352 415.143 158.84 412.455 152.984C409.863 147.128 408.567 140.072 408.567 131.816C408.567 123.656 409.863 116.648 412.455 110.792C415.143 104.84 418.839 100.328 423.543 97.256C428.247 94.088 433.719 92.504 439.959 92.504C446.295 92.504 451.719 93.992 456.231 96.968C460.743 99.848 463.863 103.688 465.591 108.488H466.455L467.031 93.8H481.143V169.976H467.031L466.455 155.144H465.591C463.863 159.944 460.743 163.832 456.231 166.808C451.719 169.784 446.295 171.272 439.959 171.272ZM444.999 159.032C449.607 159.032 453.495 157.976 456.663 155.864C459.831 153.752 462.231 150.968 463.863 147.512C465.495 144.056 466.311 140.264 466.311 136.136V127.496C466.311 123.272 465.447 119.432 463.719 115.976C462.087 112.52 459.687 109.784 456.519 107.768C453.447 105.656 449.703 104.6 445.287 104.6C438.471 104.6 433.191 107.048 429.447 111.944C425.703 116.744 423.831 123.368 423.831 131.816C423.831 140.264 425.655 146.936 429.303 151.832C433.047 156.632 438.279 159.032 444.999 159.032Z" fill="white"/>
<path d="M521.195 169.976L494.123 93.8H510.107L523.931 138.152L530.123 158.456H530.843L537.035 138.152L550.859 93.8H566.843L539.771 169.976H521.195Z" fill="white"/>
<path d="M608.78 171.272C601.292 171.272 594.908 169.688 589.628 166.52C584.348 163.256 580.316 158.696 577.532 152.84C574.748 146.984 573.356 140.12 573.356 132.248C573.356 124.184 574.748 117.176 577.532 111.224C580.316 105.272 584.3 100.712 589.484 97.544C594.764 94.28 601.052 92.648 608.348 92.648C616.316 92.648 622.892 94.472 628.076 98.12C633.356 101.672 637.148 106.616 639.452 112.952C641.756 119.288 642.62 126.584 642.044 134.84H587.9C587.996 143.192 589.916 149.48 593.66 153.704C597.5 157.832 602.54 159.896 608.78 159.896C613.772 159.896 617.804 158.792 620.876 156.584C624.044 154.376 626.156 151.448 627.212 147.8H641.324C640.172 155.192 636.572 160.952 630.524 165.08C624.572 169.208 617.324 171.272 608.78 171.272ZM608.348 104.024C602.492 104.024 597.788 105.8 594.236 109.352C590.684 112.904 588.62 118.04 588.044 124.76H627.5C627.308 117.56 625.436 112.328 621.884 109.064C618.332 105.704 613.82 104.024 608.348 104.024Z" fill="white"/>
<path d="M685.772 171.272C679.532 171.272 674.06 169.688 669.356 166.52C664.652 163.352 660.956 158.84 658.268 152.984C655.676 147.128 654.38 140.072 654.38 131.816C654.38 123.656 655.676 116.648 658.268 110.792C660.956 104.84 664.652 100.328 669.356 97.256C674.06 94.088 679.532 92.504 685.772 92.504C692.108 92.504 697.532 93.992 702.044 96.968C706.556 99.848 709.676 103.688 711.404 108.488H712.268L712.844 93.8H726.956V169.976H712.844L712.268 155.144H711.404C709.676 159.944 706.556 163.832 702.044 166.808C697.532 169.784 692.108 171.272 685.772 171.272ZM690.812 159.032C695.42 159.032 699.308 157.976 702.476 155.864C705.644 153.752 708.044 150.968 709.676 147.512C711.308 144.056 712.124 140.264 712.124 136.136V127.496C712.124 123.272 711.26 119.432 709.532 115.976C707.9 112.52 705.5 109.784 702.332 107.768C699.26 105.656 695.516 104.6 691.1 104.6C684.284 104.6 679.004 107.048 675.26 111.944C671.516 116.744 669.644 123.368 669.644 131.816C669.644 140.264 671.468 146.936 675.116 151.832C678.86 156.632 684.092 159.032 690.812 159.032Z" fill="white"/>
<path d="M774.928 171.272C768.688 171.272 763.216 169.688 758.512 166.52C753.808 163.352 750.112 158.84 747.424 152.984C744.832 147.128 743.536 140.072 743.536 131.816C743.536 123.656 744.832 116.648 747.424 110.792C750.112 104.84 753.808 100.328 758.512 97.256C763.216 94.088 768.688 92.504 774.928 92.504C781.264 92.504 786.688 93.992 791.2 96.968C795.712 99.848 798.832 103.688 800.56 108.488H801.28V65H816.112V169.976H802L801.424 155.144H800.56C798.832 159.944 795.712 163.832 791.2 166.808C786.688 169.784 781.264 171.272 774.928 171.272ZM779.968 159.032C784.576 159.032 788.464 157.976 791.632 155.864C794.8 153.752 797.2 150.968 798.832 147.512C800.464 144.056 801.28 140.264 801.28 136.136V127.496C801.28 123.272 800.416 119.432 798.688 115.976C797.056 112.52 794.656 109.784 791.488 107.768C788.416 105.656 784.672 104.6 780.256 104.6C773.44 104.6 768.16 107.048 764.416 111.944C760.672 116.744 758.8 123.368 758.8 131.816C758.8 140.264 760.624 146.936 764.272 151.832C768.016 156.632 773.248 159.032 779.968 159.032Z" fill="white"/>
<path d="M864.084 171.272C857.844 171.272 852.372 169.688 847.668 166.52C842.964 163.352 839.268 158.84 836.58 152.984C833.988 147.128 832.692 140.072 832.692 131.816C832.692 123.656 833.988 116.648 836.58 110.792C839.268 104.84 842.964 100.328 847.668 97.256C852.372 94.088 857.844 92.504 864.084 92.504C870.42 92.504 875.844 93.992 880.356 96.968C884.868 99.848 887.988 103.688 889.716 108.488H890.58L891.156 93.8H905.268V169.976H891.156L890.58 155.144H889.716C887.988 159.944 884.868 163.832 880.356 166.808C875.844 169.784 870.42 171.272 864.084 171.272ZM869.124 159.032C873.732 159.032 877.62 157.976 880.788 155.864C883.956 153.752 886.356 150.968 887.988 147.512C889.62 144.056 890.436 140.264 890.436 136.136V127.496C890.436 123.272 889.572 119.432 887.844 115.976C886.212 112.52 883.812 109.784 880.644 107.768C877.572 105.656 873.828 104.6 869.412 104.6C862.596 104.6 857.316 107.048 853.572 111.944C849.828 116.744 847.956 123.368 847.956 131.816C847.956 140.264 849.78 146.936 853.428 151.832C857.172 156.632 862.404 159.032 869.124 159.032Z" fill="white"/>
<path d="M923.864 194.024V181.784H931.928C935.384 181.784 938.072 181.064 939.992 179.624C941.912 178.184 943.448 175.976 944.6 173L947.912 164.648L918.104 93.8H934.376L949.064 134.408L954.824 150.536H955.688L961.016 134.408L974.84 93.8H990.68L958.856 176.6C956.456 183.224 953.288 187.784 949.352 190.28C945.416 192.776 940.472 194.024 934.52 194.024H923.864Z" fill="white"/>
<path d="M997.55 170.984C995.15 170.984 993.182 170.264 991.646 168.824C990.11 167.384 989.342 165.512 989.342 163.208C989.342 160.904 990.11 159.032 991.646 157.592C993.182 156.152 995.15 155.432 997.55 155.432C1000.05 155.432 1002.06 156.152 1003.6 157.592C1005.13 159.032 1005.9 160.904 1005.9 163.208C1005.9 165.512 1005.13 167.384 1003.6 168.824C1002.06 170.264 1000.05 170.984 997.55 170.984Z" fill="white"/>
<path d="M1047.04 171.272C1040.8 171.272 1035.33 169.688 1030.62 166.52C1025.92 163.352 1022.22 158.84 1019.53 152.984C1016.94 147.128 1015.65 140.072 1015.65 131.816C1015.65 123.656 1016.94 116.648 1019.53 110.792C1022.22 104.84 1025.92 100.328 1030.62 97.256C1035.33 94.088 1040.8 92.504 1047.04 92.504C1053.37 92.504 1058.8 93.992 1063.31 96.968C1067.82 99.848 1070.94 103.688 1072.67 108.488H1073.53L1074.11 93.8H1088.22V169.976H1074.11L1073.53 155.144H1072.67C1070.94 159.944 1067.82 163.832 1063.31 166.808C1058.8 169.784 1053.37 171.272 1047.04 171.272ZM1052.08 159.032C1056.69 159.032 1060.57 157.976 1063.74 155.864C1066.91 153.752 1069.31 150.968 1070.94 147.512C1072.57 144.056 1073.39 140.264 1073.39 136.136V127.496C1073.39 123.272 1072.53 119.432 1070.8 115.976C1069.17 112.52 1066.77 109.784 1063.6 107.768C1060.53 105.656 1056.78 104.6 1052.37 104.6C1045.55 104.6 1040.27 107.048 1036.53 111.944C1032.78 116.744 1030.91 123.368 1030.91 131.816C1030.91 140.264 1032.73 146.936 1036.38 151.832C1040.13 156.632 1045.36 159.032 1052.08 159.032Z" fill="white"/>
<path d="M1108.98 169.976V93.8H1123.81V169.976H1108.98ZM1116.47 82.136C1113.97 82.136 1111.91 81.464 1110.27 80.12C1108.64 78.776 1107.83 76.904 1107.83 74.504C1107.83 72.104 1108.64 70.232 1110.27 68.888C1111.91 67.544 1113.97 66.872 1116.47 66.872C1118.96 66.872 1121.03 67.544 1122.66 68.888C1124.29 70.232 1125.11 72.104 1125.11 74.504C1125.11 76.904 1124.29 78.776 1122.66 80.12C1121.03 81.464 1118.96 82.136 1116.47 82.136Z" fill="white"/>
</svg>
